<?xml version="1.0" encoding="utf-8"?>
<!-- Generator: Adobe Illustrator 22.1.0, SVG Export Plug-In . SVG Version: 6.00 Build 0)  -->
<svg version="1.1" id="Layer_1" xmlns="http://www.w3.org/2000/svg" xmlns:xlink="http://www.w3.org/1999/xlink" x="0px" y="0px"
	 viewBox="0 0 240 240" style="enable-background:new 0 0 240 240;" xml:space="preserve">
<style type="text/css">
	.st0{fill:none;stroke:#000000;stroke-miterlimit:10;}
</style>
<line class="st0" x1="124.5" y1="230.5" x2="124.5" y2="12.4"/>
<line class="st0" x1="35" y1="43.7" x2="124.5" y2="151.1"/>
<polyline class="st0" points="71.5,29.6 68.5,84 15.3,75.4 "/>
<polyline class="st0" points="85.6,66.8 83.1,101.4 41.7,97.4 "/>
<line class="st0" x1="124.5" y1="78.2" x2="70.1" y2="9"/>
<line class="st0" x1="124.5" y1="33.3" x2="103.2" y2="6.2"/>
<polyline class="st0" points="93.3,17.5 93.3,38.4 75,38.4 "/>
<polyline class="st0" points="107.4,45.8 107.4,56.4 97.3,56.4 "/>
<polyline class="st0" points="36.8,57.8 36.8,45.9 47.2,46.9 "/>
<polyline class="st0" points="54.9,39.5 54.9,66.8 24.5,63.6 "/>
<polyline class="st0" points="77.1,9 76.9,17.5 67.6,17.5 "/>
<line class="st0" x1="93.3" y1="143.5" x2="124.5" y2="175.6"/>
<polyline class="st0" points="102.4,72.9 111.3,135.2 47.2,120 "/>
<polyline class="st0" points="95.1,65.9 95.1,40.8 120,43.6 "/>
<polyline class="st0" points="54.9,31.7 80.9,22.6 91.2,3.9 "/>
<polyline class="st0" points="116.2,7.8 116.2,22.7 100.7,22.7 "/>
<polyline class="st0" points="82.2,43.7 69.2,51.9 60.4,38.4 "/>
<polyline class="st0" points="24.5,68.3 32.6,78.2 21.1,89.1 "/>
<polyline class="st0" points="50.5,114.1 56.7,122.2 47.2,127 "/>
<polyline class="st0" points="97.3,75.9 103.2,80.5 108.9,72.9 "/>
<polyline class="st0" points="56.7,86.8 67.6,99.9 56.7,114.1 "/>
<polyline class="st0" points="76.2,68.3 84.1,80.5 92.1,70.3 "/>
<polyline class="st0" points="120,95.8 108.4,115.4 91.2,100.4 "/>
<polyline class="st0" points="70.1,109 82.2,128.3 60.4,138.1 "/>
<polyline class="st0" points="28.7,43.6 36.8,45.9 36.8,38.4 "/>
<polyline class="st0" points="39.7,70.5 45.3,80.2 39.7,89.1 "/>
<polyline class="st0" points="60.4,54.3 69.7,62.9 82.2,57.8 "/>
<polyline class="st0" points="59.3,25.2 63.7,28 63.7,35.1 "/>
<polyline class="st0" points="94.2,11.8 86.8,11.8 84.1,6.2 "/>
<polyline class="st0" points="111.3,54.3 111.3,61.3 105.6,61.3 "/>
<polyline class="st0" points="119,61.3 120,72.4 111.3,78.7 "/>
<polyline class="st0" points="111.3,91.6 115.1,104 121.8,104 "/>
<polyline class="st0" points="97.3,97.8 98.9,107.1 93.3,109 "/>
<polyline class="st0" points="79.7,109 78.6,122.5 65.5,117.8 "/>
<polyline class="st0" points="58.1,130.5 72.3,132.7 67.6,148.3 "/>
<polyline class="st0" points="88,21 93.3,30.2 103.2,25.6 "/>
<polyline class="st0" points="79.7,33.3 85.6,38.4 82.2,49.2 "/>
<polyline class="st0" points="108.4,5 108.4,13.3 100.7,12.4 "/>
<polyline class="st0" points="115.6,36.3 118.2,25.2 121.8,23.8 "/>
<polyline class="st0" points="111.3,30 107.6,42.2 118.7,51.1 "/>
<polyline class="st0" points="89.2,62.9 95.1,58.6 100.7,64.3 "/>
<polyline class="st0" points="104.6,140.5 104.6,155.1 91.2,157.1 "/>
<polyline class="st0" points="30.1,58.6 35,64.7 30.1,70 "/>
<polyline class="st0" points="48.4,41.3 54.9,48.3 60.4,45.8 "/>
<polyline class="st0" points="95.1,90.7 103.2,82.8 116.5,87.9 "/>
<line class="st0" x1="214.1" y1="43" x2="124.5" y2="150.4"/>
<polyline class="st0" points="177.5,28.9 180.5,83.3 233.8,74.7 "/>
<polyline class="st0" points="163.4,66.1 166,100.7 207.4,96.7 "/>
<line class="st0" x1="124.5" y1="77.5" x2="178.9" y2="8.3"/>
<line class="st0" x1="124.5" y1="32.6" x2="145.8" y2="5.5"/>
<polyline class="st0" points="155.8,16.8 155.8,37.7 174.1,37.7 "/>
<polyline class="st0" points="141.7,45.1 141.7,55.7 151.7,55.7 "/>
<polyline class="st0" points="212.3,57.1 212.3,45.2 201.9,46.2 "/>
<polyline class="st0" points="194.2,38.8 194.2,66.1 224.5,62.9 "/>
<polyline class="st0" points="172,8.3 172.2,16.8 181.5,16.8 "/>
<line class="st0" x1="155.8" y1="142.8" x2="124.5" y2="174.9"/>
<polyline class="st0" points="146.7,72.2 137.8,134.5 201.9,119.3 "/>
<polyline class="st0" points="153.9,65.2 153.9,40.1 129.1,42.9 "/>
<polyline class="st0" points="194.2,31 168.2,21.9 157.9,3.2 "/>
<polyline class="st0" points="132.9,7.1 132.9,22 148.4,22 "/>
<polyline class="st0" points="166.9,43 179.9,51.2 188.7,37.7 "/>
<polyline class="st0" points="224.5,67.6 216.5,77.5 228,88.4 "/>
<polyline class="st0" points="198.6,113.4 192.4,121.6 201.9,126.3 "/>
<polyline class="st0" points="151.7,75.2 145.8,79.8 140.2,72.2 "/>
<polyline class="st0" points="192.4,86.1 181.5,99.2 192.4,113.4 "/>
<polyline class="st0" points="172.9,67.6 164.9,79.8 156.9,69.6 "/>
<polyline class="st0" points="129.1,95.1 140.6,114.7 157.9,99.7 "/>
<polyline class="st0" points="178.9,108.3 166.9,127.6 188.7,137.4 "/>
<polyline class="st0" points="220.4,42.9 212.3,45.2 212.3,37.7 "/>
<polyline class="st0" points="209.4,69.9 203.7,79.5 209.4,88.4 "/>
<polyline class="st0" points="188.7,53.6 179.4,62.3 166.9,57.1 "/>
<polyline class="st0" points="189.8,24.5 185.4,27.3 185.4,34.4 "/>
<polyline class="st0" points="154.9,11.1 162.2,11.1 164.9,5.5 "/>
<polyline class="st0" points="137.8,53.6 137.8,60.6 143.5,60.6 "/>
<polyline class="st0" points="130.1,60.6 129.1,71.7 137.8,78 "/>
<polyline class="st0" points="137.8,90.9 133.9,103.3 127.3,103.3 "/>
<polyline class="st0" points="151.7,97.1 150.2,106.4 155.8,108.3 "/>
<polyline class="st0" points="169.3,108.3 170.5,121.8 183.6,117.1 "/>
<polyline class="st0" points="191,129.8 176.7,132.1 181.5,147.6 "/>
<polyline class="st0" points="161.1,20.3 155.8,29.5 145.8,24.9 "/>
<polyline class="st0" points="169.3,32.6 163.4,37.7 166.9,48.6 "/>
<polyline class="st0" points="140.6,4.3 140.6,12.6 148.4,11.8 "/>
<polyline class="st0" points="133.4,35.6 130.9,24.5 127.3,23.1 "/>
<polyline class="st0" points="137.8,29.3 141.5,41.5 130.4,50.4 "/>
<polyline class="st0" points="159.9,62.3 153.9,58 148.4,63.6 "/>
<polyline class="st0" points="144.5,139.8 144.5,154.4 157.9,156.4 "/>
<polyline class="st0" points="219,58 214.1,64 219,69.3 "/>
<polyline class="st0" points="200.7,40.6 194.2,47.6 188.7,45.1 "/>
<polyline class="st0" points="153.9,90 145.8,82.1 132.6,87.2 "/>
</svg>
